<?xml version="1.0" encoding="utf-8"?>
<!-- Generator: Adobe Illustrator 24.1.1, SVG Export Plug-In . SVG Version: 6.00 Build 0)  -->
<svg version="1.1" id="Layer_1" xmlns="http://www.w3.org/2000/svg" xmlns:xlink="http://www.w3.org/1999/xlink" x="0px" y="0px"
	 viewBox="0 0 512 512" style="enable-background:new 0 0 512 512;" xml:space="preserve">
<style type="text/css">
	.st0{fill:#444444;}
</style>
<g>
	<path class="st0" d="M80.3,418c-39.7-42.1-63-100.3-62.9-169.7C17.3,186.9,36.6,134.2,69.8,94l-0.1,0H0v324H80.3z"/>
	<path class="st0" d="M447.3,418.1c17.1-18.3,32.5-39.9,46.4-64.6l-77.1-38.6c-27.1,44-66.7,84.6-121.5,84.8
		c-79.7-0.3-111.1-68.4-110.9-156.2h297.9c0.4-9.9,0.4-14.5,0-19.3C484,172,470.2,128.1,445,93.9l-0.1,0.1H512v324L447.3,418.1
		L447.3,418.1z"/>
	<path class="st0" d="M189,168.3c3.3-39.7,34.6-66.5,71.4-66.5c37,0.1,63.7,26.8,64.6,66.5H189z"/>
</g>
</svg>
