<?xml version="1.0" encoding="utf-8"?>
<!-- Generator: Adobe Illustrator 24.1.1, SVG Export Plug-In . SVG Version: 6.00 Build 0)  -->
<svg version="1.1" id="Layer_1" xmlns="http://www.w3.org/2000/svg" xmlns:xlink="http://www.w3.org/1999/xlink" x="0px" y="0px"
	 viewBox="0 0 512 512" style="enable-background:new 0 0 512 512;" xml:space="preserve">
<g>
	<path d="M255.9,128.3c0,0-35.8,59.5-52.9,88.4c-3.3,1.3-3.7,0.8-7.3,4.4c-8.8-10.1-19.2-0.9-21.9,4.7c-1.2-12.1-3.2-12.1-6-14.8
		c1.6-10.6,6.8-27.8-5.1-40.2c-23-15.5-49.7,22.4-64.5,42.2l-8,13.3c-33-0.8-58.9,0.2-90.2-0.5c38.2,14.3,39.7,14.6,85.9,32.2
		c0,1.4,3.4,7.9,7.2,11.8c3.1,3.3,6.6,5,8.3,6.1c-2.3,1.1-6.8,2.9-8.2,5.5c-6.3,11.6,2.9,14.3,8.9,23.6c6.7,12.2,8.2,20.2,24,13.3
		c5.4-2.3,12-3.2,16.2-4.4c-14.8,23.3-18.6,29.7-44.4,69.8l0.3,0.1c103.4-40.4,106.1-41.4,157.2-61.7C329,350.6,333.2,353,414,383.7
		c-11.3-17.7-19-28.7-27.1-42.6c3.1-0.3,10.2-1,16.6-4.9c4.5-2.9,9.8-6.2,14.7-12.2c9.4-12.1,11.7-27.3,8.3-46.3
		c-1.7-9-5-17.7-4.6-18.1c44-16.7,49.2-18.4,90.2-33.9c-49.3,0.8-51.7,0.3-97.9,0.3c-0.8-8.8-5.3-13.3-18.8-12.9
		c-5.1,0.8-8.3,2.6-10.7,9.5c-7.6-14-18.2-9.9-22.6-3c-5.9-6-19.6-8-26.5-3.6c-5.1-2.4-10.9-2.4-16.2,3.8c-3.7-3.1-4.9-4-13.1-7.3
		C287.3,180.6,271.6,155.1,255.9,128.3L255.9,128.3z M256.2,145.4c7.5,11.4,33.1,55.8,39.5,65.6c-7.2,0.5-14.3,4.3-19.6,12
		c-4.7-4.7-10.1-9.5-19.6-9.8c-11.6-2-17.8,3.2-25.6,12.1c-2.3-7.8-11.3-9.6-19.2-6C218.8,208.2,251.8,152.6,256.2,145.4
		L256.2,145.4z M158.9,194.8c-1.1,30.6-22.7,57.8-38.3,47.8c-11.7-9.5,3.2-33.7,12.6-42.3c-0.7,6.6,5.2,10.7,0.5,16.4
		c-9.5,11.6-5.8,20-1.7,21.3c10.9,3.5,21.4-26.2,21.4-46.9c0-13.3-7.8-13.1-23.2,2.9c-21,21.7-32.2,42.9-24.8,57.3
		c4.2,8.2,10.4,13.9,20.4,12.7c19.8-2.3,31.7-26.8,32.9-42.3c3.2-0.1,2.4,0.2,3.2-0.5c0,2.8,3.8,16.2,6.7,24.9
		c3.9,15,20.6,45-29.2,56.7c-9.4,2.4-13.1,3.2-22.4,6.8c-4.5-9.4-5.6-12.4-14.8-21.6c12.5-4.4,12.7-3.9,20.8-6.7
		c31.2-10.9,40.7-20.3,39.6-33.5c0,0,0.4-6.8-3.9-12.6c-1.5,4.9-3.6,9.5-6.3,13.8c-9.3,14.6-27.6,23.5-44,17.8
		c-8.8-3.1-12.7-10-12.7-21.7c0-15,34.2-58.3,50.9-65.7C158.6,175.8,159.1,185.6,158.9,194.8L158.9,194.8z M297.7,222.5
		c5.5,0.1,11.6,2.8,15.7,7.2c12.7,13.6,11.3,30.2,3.5,40.6c-9.3,12.4-32.8,6.9-38.3-10.4c-2.6-8,2-28,10.2-34.6
		C291.3,223.4,294.4,222.4,297.7,222.5L297.7,222.5z M252.6,223.9l2.5,0.4c10.8,0.6,13,6.7,14.9,11.9c4.9,13.3,3.7,25.8-6.4,36.1
		c-15.2,15.3-32.8,8.6-32.8-12.1C231.2,245.5,240.3,223.6,252.6,223.9L252.6,223.9z M292.4,224.7c-8.2,6.2-9.3,21.8-1.7,27.7
		c2.9,2.8,4.6,4.7,13,5.5c5.8,0.5,15.1-5.4,15.5-11.3c0.3-2.7-0.3-7.2-6.7-14.3c-5.3-6-12.3-7.4-14.1-6.4c-5.6,3.3,0.4,6,2.7,8.2
		c3.4,3.5,4.2,5,2.7,6.1c-2.3,1.5-5.3,1.9-7.9,1.2C293.7,240.3,286.2,236,292.4,224.7z M372.6,224.8c3.6,5.6,4.6,6.8,8.6,20.6
		c5.2,17.9,11.7,24.8,17.4,21.6c15.8-8.9,3.1-31.5-2.4-42.2c3.6,0,2.8,0.2,6.1,0.1c2.6,10.1,1.8,8.3,8.8,38.7
		c8.1,36.4,9.4,46.1-11.3,62.4c-9.5,7.5-23.5,7.8-35.5,7.3l-13.6-2.1c9.3-6.1,11.6-11.8,11.6-23.8c27.2,11.4,41.7,2.8,47.5-11.2
		c2.8-6.8,1.8-15.7-0.8-31.4c0.2,12.9-0.1,15.2-1.8,21.5c-3.4,12.8-11.7,16.3-17.3,7.3c-2.2-3.4-7.3-14.9-9-27.3
		c-1.6-12.4-2.8-29.8-10.7-37C371,227.4,371.8,225.5,372.6,224.8L372.6,224.8z M346,225c5.5,1.4,12.2,4.3,15.8,11.1
		c4.9,9.3,8.3,14.3,8,30.9c-0.3,17.7-7.3,22.5-11.9,23.2c-5.9,0.8-16.2,0.8-22.3-34.1c-2.1-11.5-5.7-22.5-9.7-26.1
		c1.9-2.4,2.1-2.1,3.6-4.4c1.9,2.2,3.6,5.8,6.3,16.6c4.3,17.2,8.3,20.8,15.9,21.8c11.9,1.6,16.6-16.6,6.8-29.6
		c-2.2-2.8-7.8-6.5-10.8-5c0.2,5,2.4,3.4,2.4,6.8c-0.5,4-1.1,4.7-2.3,6.8c-3.1-1.2-4.5-1.7-7.2-6.2C337.4,230,339.5,223.8,346,225
		L346,225z M247.9,226.6c-5.6,3.9-12.7,17.1-6.5,28.8c3.1,4.3,6.3,7.9,13.7,6.3c5.2-1.1,14.3-7.2,15.6-15.9
		c1.1-7.5-9.8-22-15.8-18.6c-7,3.9-2.8,6.7,1.6,10.9c3.9,3.8,1.1,6.2-1.7,7.2c-5.5,2.2-8.6,0.1-10-4.3
		C243.5,236.8,244.7,233,247.9,226.6L247.9,226.6z M186.8,228c1.2,3.6,2.2,8.6,4.7,13.3c0.6,0.5,2.8,0,5.8-3.3
		c1.8-2.2,3.9-5.1,7.6-9.9c2.2,2.1,2.4,3.6,3.1,4.7c1.5,2.8,4.8,2.6,5.8,2.4c3.6-3.6,4.2-5.9,6.5-6.3c0.2,4.7,0.4,7.5-5.5,14.5
		c-2.6,3-6.7,4.4-10.7,3.7c-2.6-0.8-4.2-2.3-8.3-4.4c-5.5,0.8-4,6.8-3,11.7c2.5,13,10.7,18.3,17.7,14.4c2.4-1.3,1.9-1.3,6.7-3.3
		c-0.8,8.2-1.3,9.8,0.2,19.1c-11.5,6.4-20.9,5.3-23.5-10.8c-1.9-13.4-5.6-29.8-8.8-33.2c-3.1-3.2-4.4-4.2-4.4-4.2L186.8,228z
		 M35,229.7c16.1,0.2,34.2,0.2,53.5,0.4c-2.8,6.8-3.7,11.5-4.2,18.2C75.3,244.9,44.3,233.7,35,229.7z M477.1,229.9
		c-21.2,7.7-36.6,13.6-57.1,21.4c-2.3-9.6-2.7-12.6-4.7-21.3C449.5,230,450.1,230.1,477.1,229.9z M328.3,273.4
		c2.2,9.2,5.4,13.7,5.4,13.7c4.2,7.4,9.7,11.7,17.9,13.8c1.7,2.9,2.4,3.5,3.2,5.1c0.8,9.7,0.2,10.9-7.4,16.5
		c-4.4,4.3-4.6,10.6,0,16.4c4.9,4.7,10.1,6.3,29.3,1.3c3.7,6.4,8.9,13.9,16.5,26C367.5,356.5,332,342.6,256,313
		c0,0-88.9,34.6-136.6,53.2c19.9-31.4,21.6-34.1,35.7-56.1c4.8-1.9,3.2-1.2,7.4-3.3c9.8-5.2,17.7-13,22-24.4
		c7.9,17.7,16.6,19.8,34.8,14c3.8-1.7,8.2-4.3,9.1-11.1c9.8,8.8,30.6,10.4,45.7-8.2C287.3,292.5,316.9,293.9,328.3,273.4
		L328.3,273.4z M374.3,292l1.3,3.6c-2.1,0.1-4.5,0-4.5,0L374.3,292L374.3,292z"/>
</g>
</svg>
