<?xml version="1.0" encoding="utf-8"?>
<!-- Generator: Adobe Illustrator 24.1.1, SVG Export Plug-In . SVG Version: 6.00 Build 0)  -->
<svg version="1.1" id="Layer_1" xmlns="http://www.w3.org/2000/svg" xmlns:xlink="http://www.w3.org/1999/xlink" x="0px" y="0px"
	 viewBox="0 0 512 512" style="enable-background:new 0 0 512 512;" xml:space="preserve">
<g>
	<path d="M259.8,461.6c-1.8-3.6-4-11.2-5.4-14.4c-1.5-2.8-5.8-10.8-7.9-13.3c-4.7-5.3-5.7-5.7-7.2-12.9
		c-2.5-12.3-8.6-33.9-16.2-48.9c-4-8-10.5-14.4-16.3-20.3c-5-5-16.5-13.2-18.7-12.9c-19.1,3.6-24.9,22.3-33.9,37.1
		c-5.1,8.3-10.1,15.1-14.1,23.8c-3.6,7.9-3.3,16.9-9.3,23.8c-6.1,6.7-10.7,14.8-13.3,23.4c-0.8,1.8-2.2,19.8-4,24.1l28.1-1.7
		c26.4,1.8,18.8,11.8,59.5,9.7l64.4-2.2c-1.5-5.2-3.4-10.3-5.7-15.2L259.8,461.6z M447.1,32.9H64.5C28.9,32.8,0,61.7,0,97.3v140.5
		c9.4-3.3,22.3-23,26.7-27.7c7.2-8.3,8.7-19.1,12.2-25.5c8.3-15.2,9.7-25.9,28.4-25.9c8.7,0,12.2,2.1,18,10.1
		c4,5.3,11.2,15.8,14.4,22.7c4,7.9,10.1,18.3,13,20.5c2.1,1.4,3.9,2.9,5.7,3.6c2.8,1.1,5.4-1.1,7.6-2.5c2.5-2.2,3.6-6.1,6.1-11.8
		c3.6-8.3,7.3-17.7,9.3-21.3c3.7-5.8,5.1-13,9-16.3c5.8-5,13.8-5.4,15.8-5.8c11.9-2.5,17.4,5.8,23.1,10.8c3.9,3.6,9,10.4,13,19.4
		c2.8,7.2,6.4,14.1,8.3,18c1.4,3.9,5.1,10.4,7.2,18.3c2.2,6.9,7.2,12.3,9.4,15.9c0,0,3.3,8.7,21.9,16.6c5.7,2.4,11.4,4.4,17.4,6.1
		c8.3,2.9,16.2,2.6,26.3,1.5c7.2,0,11.2-10.5,14.4-18.7c1.7-5,3.9-19.1,5-23c1.1-4-1.7-6.8,0.8-10.5c2.9-3.9,4.7-4.3,6.1-9.3
		c3.7-11.2,23.8-11.5,35.3-11.5c9.7,0,8.3,9.3,24.5,6.1c9.3-1.7,18.4,1.1,28.1,4c8.3,2.2,16.2,4.7,20.8,10.1
		c2.9,3.6,10.5,21.3,2.9,21.9l2.5,3.3c-1.8,6.8-9,1.8-13.3,1.1c-5.4-1.1-9.3,0-14.7,2.5c-9.3,4-22.7,3.7-30.9,10.5
		c-6.9,5.7-6.9,18.3-10.2,25.5c0,0-9,22.8-28,36.8c-5.1,3.7-14.9,12.2-35.7,15.5c-9.4,1.4-18.4,1.4-28.1,1.1
		c-4.7-0.3-9.3-0.3-14.1-0.3c-2.8,0-12.2-0.4-11.9,0.6l-1.1,2.6l0.7,3.6c0.4,2.1,0.4,3.9,0.8,5.7c0,3.9-0.3,8.3,0,12.3
		c0.3,8.2,3.6,15.8,4,24.4c0.3,9.4,5,19.5,9.7,27.1c1.8,2.8,4.3,3.2,5.4,6.8c1.4,3.9,0,8.6,0.8,12.9c2.5,16.9,7.5,34.9,15.1,50.5
		v0.3c9.3-1.4,19.1-5,31.4-6.7c22.7-3.3,54-1.8,74.2-3.7c51.2-4.7,78.9,20.9,124.7,10.4v-379C511.7,61.7,482.8,32.8,447.1,32.9
		L447.1,32.9z M256.1,335.5L256.1,335.5z M118.2,394.5c3.6-7.9,5.7-16.5,8.6-24.4c2.9-7.6,7.2-18.4,14.7-22.3
		c-1-1.1-15.8-1.5-19.7-1.8c-4.3-0.3-8.7-1.1-13-1.7c-8.2-1.5-16.3-3.2-24.5-5.1c-4.7-1.1-20.9-6.9-24.1-8.3
		c-8.3-3.6-13.7-14.1-19.9-13c-3.9,0.8-7.9,2.2-10.4,6.2c-2.2,3.2-2.9,9-4.3,12.9c-1.7,4.3-4.7,8.7-6.8,13
		c-5.1,7.5-13.3,14.3-16.9,21.9c-0.8,1.8-1.1,3.6-1.8,5.4v86.8c4.3,0.8,8.7,1.5,13.3,2.9c36,9.8,44.7,10.4,80,6.5l3.3-0.4
		c2.5-5.8,4.8-24.8,6.5-30.6c1.4-4.7,3.3-8.2,4-12.6c0.7-4.4,0-8.7-0.4-12.6C106,406.8,114.2,403.2,118.2,394.5L118.2,394.5z"/>
</g>
</svg>
