<?xml version="1.0" encoding="utf-8"?>
<!-- Generator: Adobe Illustrator 24.1.1, SVG Export Plug-In . SVG Version: 6.00 Build 0)  -->
<svg version="1.1" id="Layer_1" xmlns="http://www.w3.org/2000/svg" xmlns:xlink="http://www.w3.org/1999/xlink" x="0px" y="0px"
	 viewBox="0 0 512 512" style="enable-background:new 0 0 512 512;" xml:space="preserve">
<g>
	<path d="M508.5,249.7L487,236.4c-0.2-2.1-0.4-4.2-0.6-6.3l18.5-17.2c1.9-1.8,2.7-4.3,2.2-6.9c-0.5-2.5-2.3-4.6-4.7-5.5l-23.6-8.8
		c-0.6-2-1.2-4.1-1.8-6.1l14.7-20.5c1.5-2.1,1.8-4.8,0.8-7.2c-1-2.4-3.1-4.1-5.6-4.5l-24.9-4c-1-1.9-2-3.7-3-5.6l10.5-23
		c1.1-2.3,0.9-5.1-0.6-7.2c-1.4-2.1-3.8-3.4-6.4-3.3l-25.3,0.9c-1.3-1.6-2.6-3.3-4-4.8l5.8-24.6c0.6-2.5-0.2-5.1-2-6.9
		c-1.8-1.8-4.4-2.6-6.9-2l-24.6,5.8c-1.6-1.4-3.2-2.7-4.9-4l0.9-25.3c0.1-2.6-1.1-5-3.3-6.4c-2.1-1.4-4.8-1.6-7.2-0.6l-23,10.5
		c-1.9-1-3.7-2-5.6-3l-4.1-24.9c-0.4-2.5-2.1-4.7-4.5-5.6c-2.4-1-5.1-0.7-7.2,0.8L326.4,35c-2-0.6-4-1.3-6.1-1.8l-8.8-23.6
		c-0.9-2.4-3-4.2-5.5-4.7c-2.5-0.5-5.1,0.3-6.8,2.2l-17.2,18.5c-2.1-0.2-4.2-0.4-6.3-0.6L262.3,3.5C261,1.3,258.6,0,256,0
		c-2.6,0-4.9,1.3-6.3,3.5L236.4,25c-2.1,0.2-4.2,0.4-6.3,0.6L212.9,7.1c-1.7-1.9-4.3-2.7-6.8-2.2c-2.5,0.5-4.6,2.3-5.5,4.7
		l-8.8,23.6c-2,0.6-4.1,1.2-6.1,1.8l-20.5-14.7c-2.1-1.5-4.8-1.8-7.2-0.8c-2.4,1-4.1,3.1-4.5,5.6L149.5,50c-1.9,1-3.7,2-5.6,3
		l-23-10.5c-2.3-1.1-5.1-0.8-7.2,0.6c-2.1,1.4-3.4,3.8-3.3,6.4l0.9,25.3c-1.6,1.3-3.3,2.6-4.9,4L81.9,73c-2.5-0.6-5.1,0.2-6.9,2
		c-1.8,1.8-2.6,4.4-2,6.9l5.8,24.6c-1.3,1.6-2.7,3.2-4,4.8l-25.3-0.9c-2.5-0.1-5,1.1-6.4,3.3c-1.4,2.1-1.6,4.8-0.6,7.2l10.5,23
		c-1,1.8-2,3.7-3,5.6l-24.9,4c-2.5,0.4-4.7,2.1-5.6,4.5c-1,2.4-0.7,5.1,0.8,7.2l14.7,20.5c-0.6,2-1.3,4.1-1.8,6.1l-23.6,8.8
		c-2.4,0.9-4.2,3-4.7,5.5c-0.5,2.5,0.3,5.1,2.2,6.9l18.5,17.2c-0.2,2.1-0.4,4.2-0.6,6.3L3.5,249.7C1.3,251.1,0,253.4,0,256
		c0,2.6,1.3,4.9,3.5,6.3L25,275.6c0.2,2.1,0.4,4.2,0.6,6.3L7.1,299.1c-1.9,1.7-2.7,4.3-2.2,6.8c0.5,2.5,2.3,4.6,4.7,5.5l23.6,8.8
		c0.6,2,1.2,4.1,1.8,6.1l-14.7,20.5c-1.5,2.1-1.8,4.8-0.8,7.2c1,2.4,3.1,4.1,5.7,4.5l24.9,4.1c1,1.9,2,3.7,3,5.6l-10.5,23
		c-1.1,2.3-0.8,5,0.6,7.2c1.4,2.1,3.9,3.4,6.4,3.3l25.3-0.9c1.3,1.6,2.6,3.3,4,4.9L73,430.1c-0.6,2.5,0.2,5.1,2,6.9
		c1.8,1.8,4.4,2.6,6.9,2l24.6-5.8c1.6,1.4,3.2,2.7,4.9,4l-0.9,25.3c-0.1,2.6,1.1,5,3.3,6.4c2.1,1.4,4.8,1.6,7.2,0.6l23-10.5
		c1.8,1,3.7,2,5.6,3l4.1,24.9c0.4,2.5,2.1,4.7,4.5,5.7c2.4,1,5.1,0.7,7.2-0.8l20.5-14.7c2,0.6,4.1,1.3,6.1,1.9l8.8,23.6
		c0.9,2.4,3,4.2,5.5,4.7c2.5,0.5,5.1-0.3,6.8-2.2l17.2-18.5c2.1,0.2,4.2,0.4,6.3,0.6l13.3,21.5c1.3,2.2,3.7,3.5,6.3,3.5
		c2.6,0,4.9-1.3,6.3-3.5l13.3-21.5c2.1-0.2,4.2-0.4,6.3-0.6l17.2,18.5c1.7,1.9,4.3,2.7,6.8,2.2c2.5-0.5,4.6-2.3,5.5-4.7l8.8-23.6
		c2-0.6,4.1-1.2,6.1-1.9l20.5,14.7c2.1,1.5,4.8,1.8,7.2,0.8c2.4-1,4.1-3.1,4.5-5.7l4.1-24.9c1.9-1,3.7-2,5.6-3l23,10.5
		c2.3,1.1,5,0.9,7.2-0.6c2.1-1.4,3.4-3.8,3.3-6.4l-0.9-25.3c1.6-1.3,3.3-2.6,4.8-4l24.6,5.8c2.5,0.6,5.1-0.1,6.9-2
		c1.8-1.8,2.6-4.4,2-6.9l-5.8-24.6c1.4-1.6,2.7-3.2,4-4.9l25.3,0.9c2.5,0.1,5-1.1,6.4-3.3c1.4-2.1,1.6-4.8,0.6-7.2l-10.5-23
		c1-1.9,2-3.7,3-5.6l24.9-4.1c2.5-0.4,4.7-2.1,5.6-4.5c1-2.4,0.7-5.1-0.8-7.2l-14.7-20.5c0.6-2,1.3-4.1,1.8-6.1l23.6-8.8
		c2.4-0.9,4.2-3,4.7-5.5c0.5-2.5-0.3-5.1-2.2-6.8l-18.5-17.2c0.2-2.1,0.4-4.2,0.6-6.3l21.5-13.3c2.2-1.3,3.5-3.7,3.5-6.3
		C512,253.4,510.7,251.1,508.5,249.7z M364.6,428c-8.2-1.8-13.4-9.9-11.7-18.1c1.8-8.2,9.8-13.5,18-11.7c8.2,1.8,13.4,9.9,11.7,18.1
		C380.9,424.5,372.8,429.8,364.6,428z M357.3,378.6c-7.5-1.6-14.9,3.2-16.5,10.7l-7.6,35.6c-23.5,10.7-49.7,16.6-77.2,16.6
		c-28.2,0-54.9-6.2-78.9-17.4l-7.6-35.6c-1.6-7.5-9-12.3-16.5-10.7l-31.4,6.7c-5.8-6-11.3-12.4-16.3-19.2h153c1.7,0,2.9-0.3,2.9-1.9
		v-54.1c0-1.6-1.2-1.9-2.9-1.9h-44.7v-34.3H262c4.4,0,23.6,1.3,29.8,25.8c1.9,7.5,6.1,32.1,9,40c2.9,8.8,14.6,26.4,27.1,26.4h76.2
		c0.9,0,1.8-0.1,2.8-0.3c-5.3,7.2-11.1,14-17.3,20.3L357.3,378.6z M145.8,427.3c-8.2,1.8-16.3-3.5-18.1-11.7
		c-1.8-8.2,3.5-16.3,11.7-18.1c8.2-1.8,16.3,3.5,18.1,11.7C159.2,417.4,154,425.5,145.8,427.3z M87.7,192c3.4,7.7-0.1,16.7-7.7,20.1
		c-7.7,3.4-16.7-0.1-20.1-7.7c-3.4-7.7,0.1-16.7,7.7-20.1C75.3,180.8,84.3,184.3,87.7,192z M69.9,234.2l32.8-14.6
		c7-3.1,10.2-11.3,7-18.3l-6.7-15.3h26.5v119.6H75.9c-4.6-16.3-7.1-33.5-7.1-51.3C68.8,247.6,69.2,240.8,69.9,234.2z M213.6,222.6
		v-35.2h63.2c3.3,0,23,3.8,23,18.6c0,12.3-15.2,16.7-27.6,16.7L213.6,222.6L213.6,222.6z M443.2,254.4c0,4.7-0.2,9.3-0.5,13.9h-19.2
		c-1.9,0-2.7,1.3-2.7,3.1v8.8c0,20.8-11.7,25.3-22,26.4c-9.8,1.1-20.6-4.1-21.9-10.1c-5.8-32.4-15.4-39.3-30.5-51.3
		c18.8-12,38.4-29.6,38.4-53.2c0-25.5-17.5-41.5-29.4-49.4c-16.7-11-35.2-13.2-40.2-13.2H116.6c26.9-30.1,63.4-51.4,104.7-59.1
		l23.4,24.6c5.3,5.5,14.1,5.7,19.6,0.4l26.2-25.1c54.9,10.2,101.4,44.4,128.1,91.3l-17.9,40.5c-3.1,7,0.1,15.2,7.1,18.3l34.5,15.3
		C442.9,241.9,443.2,248.1,443.2,254.4z M244.7,49.5c6.1-5.8,15.7-5.6,21.5,0.5c5.8,6.1,5.6,15.7-0.5,21.5
		c-6.1,5.8-15.7,5.6-21.5-0.5C238.4,64.9,238.6,55.3,244.7,49.5z M422.7,192.7c3.4-7.7,12.4-11.2,20.1-7.7
		c7.7,3.4,11.1,12.4,7.7,20.1c-3.4,7.7-12.4,11.2-20.1,7.7C422.7,209.4,419.3,200.4,422.7,192.7z"/>
</g>
</svg>
