<?xml version="1.0" encoding="utf-8"?>
<!-- Generator: Adobe Illustrator 24.1.1, SVG Export Plug-In . SVG Version: 6.00 Build 0)  -->
<svg version="1.1" id="Layer_1" xmlns="http://www.w3.org/2000/svg" xmlns:xlink="http://www.w3.org/1999/xlink" x="0px" y="0px"
	 viewBox="0 0 512 512" style="enable-background:new 0 0 512 512;" xml:space="preserve">
<g>
	<path d="M469,348.7c1.2-2.4,1.2-4.8,2.4-7.2c28.7-112.5-39.5-244.1-156.7-313.4c51.4,69.3,71.7,151.9,53.8,226.1
		c-1.1,6-3.6,13.2-6,19.2c-3.2-1.8-6.5-3.8-9.6-6c0,0-116-71.7-240.4-197.4c-3.6-3.6,67,100.5,145.9,183.1
		c-37.1-21.6-142.3-96.9-208.2-157.9c7.2,13.1,18,26.2,28.8,39.4c55,70.6,126.8,156.7,212.9,222.5c-61,37.2-145.9,39.5-232.1,0
		c-21.5-9.5-39.5-21.5-59.8-35.8c35.9,56.2,92.2,107.6,159.2,135.2c80.2,34.7,161.5,32.3,220.1,0h1.3c2.3-1.2,4.7-2.4,7.2-4.8
		c28.7-14.4,84.9-29.9,116,29.9C512.1,498.3,527.6,420.6,469,348.7L469,348.7z"/>
</g>
</svg>
