<?xml version="1.0" encoding="utf-8"?>
<!-- Generator: Adobe Illustrator 24.1.1, SVG Export Plug-In . SVG Version: 6.00 Build 0)  -->
<svg version="1.1" id="Layer_1" xmlns="http://www.w3.org/2000/svg" xmlns:xlink="http://www.w3.org/1999/xlink" x="0px" y="0px"
	 viewBox="0 0 512 512" style="enable-background:new 0 0 512 512;" xml:space="preserve">
<g>
	<path d="M512,255.7h-0.6l-92.1-92.1l91.7-94.2V31.2l-13.8-13.8H322.3l-14.1,12.9v22.3l-51.9-52V0L256,0.3L255.7,0v0.6l-27.5,27.5
		l-11.5-11.5H43.4L29.8,31.4v40.2l13.1,13.2h15.4V198L0.6,255.7H0l0.3,0.3L0,256.3h0.6L58.3,314v138l19.3,11.2h49.5l39.7-40.7
		l88.8,88.9v0.6l0.3-0.3l0.3,0.3v-0.6l53.5-53.5h10.3c2.4,0,4.5-1.5,5.3-3.8l3.2-9.1c0.6-1.8,0.3-3.7-0.8-5.2l31.2-31.2l-13,41.8
		c-0.9,3.1,0.8,6.2,3.7,7.1l1.7,0.3h38.9c2.3-0.1,4.3-1.4,5.2-3.5l3.5-8.4l-0.1-4.3l-3.1-3l-2.1-0.5h-1.6l17.9-56.3h26.3l-21.7,68.7
		c-0.9,3,0.8,6.2,3.7,7.1l1.7,0.3h42.7c2.3,0,4.4-1.4,5.3-3.6l3.5-9.2c1.1-2.9-0.5-6.2-3.4-7.3l-1.9-0.3h-3.1l24.1-78.4
		c0.6-1.7,0.3-3.7-0.8-5.1l-8-10.8v-0.1c-1.1-1.4-2.8-2.3-4.5-2.3h-30.7c-1.5,0-3,0.7-4,1.7l-8.6,9.4h-13.3l-0.9-1l94.8-94.8h0.6
		l-0.3-0.3L512,255.7z M209.9,451l33.7-96.3h-10.8l6.4-6.5h35.3l-33.3,97.3h13.3l-1.8,5.5H209.9z M288.7,290.6l3.3,3.3l-5.7,19.7
		l-4.8,4.8h-20.7l-3.8-3.8l6.7-18.6l6.1-5.3H288.7z M119.2,444.4H82.7l-5.7-3.2V65.9H50.7l-2.2-2.1V38.8l3.1-3.3h157.3l4.6,4.6v23.7
		l-3.1,3.7h-23v185.3L375.3,67.3h-44.5l-3.7-4V38.5l2.6-2.3h159.7l2.8,2.8v22.8L276.9,282.7h-8H268l-0.4,0.1l-2.5,1.3l-7.3,6.3
		l-0.1,0.1l-1.6,2.3l-6.3,17.7L119.2,444.4z M434.3,360.1l10.1-11.1h28.4l6.7,8.8l-27,87.6H463l-1.7,4.5h-38l24-76.1h-43l-23,72.3
		h9.1l-1.6,3.7h-34.3l23.7-75.7h-44.8l-22.7,71.3h9.3l-1.6,4.4H283l32.3-95.2h-12.5l1.9-5.7H340l11.1,11.4h19.3l10.5-11.7h22.6
		l10.5,11.4L434.3,360.1z"/>
</g>
</svg>
